<svg width="512" height="512" viewBox="0 0 512 512" fill="none" xmlns="http://www.w3.org/2000/svg">
  <rect width="512" height="512" rx="116" fill="#2F6C4F"/>
  <rect x="58" y="58" width="396" height="396" rx="84" fill="#F4EFE3"/>
  <rect x="98" y="110" width="316" height="68" rx="28" fill="#1E2A20"/>
  <circle cx="140" cy="144" r="12" fill="#F4EFE3"/>
  <circle cx="372" cy="144" r="12" fill="#F4EFE3"/>
  <rect x="112" y="210" width="92" height="92" rx="24" fill="#E1F0E7"/>
  <path d="M137 255L167 285L244 208" stroke="#2F6C4F" stroke-width="24" stroke-linecap="round" stroke-linejoin="round"/>
  <rect x="232" y="226" width="150" height="18" rx="9" fill="#9F8F70"/>
  <rect x="232" y="260" width="114" height="18" rx="9" fill="#D9CCB3"/>
  <rect x="112" y="332" width="92" height="92" rx="24" fill="#F7E3DF"/>
  <path d="M140 360L176 396" stroke="#A24038" stroke-width="20" stroke-linecap="round"/>
  <path d="M176 360L140 396" stroke="#A24038" stroke-width="20" stroke-linecap="round"/>
  <rect x="232" y="348" width="150" height="18" rx="9" fill="#9F8F70"/>
  <rect x="232" y="382" width="130" height="18" rx="9" fill="#D9CCB3"/>
</svg>
